<svg width="301" height="301" viewBox="0 0 301 301" fill="none" xmlns="http://www.w3.org/2000/svg">
<path d="M76.691 58.3537C82.0743 57.5103 90.0433 58.2332 95.1429 59.9067C128.534 70.8653 136.299 117.343 141.096 146.871C143.089 159.081 145.008 171.304 146.853 183.538C147.858 190.184 149.036 197.766 150.263 204.412C153.026 219.371 162.448 229.293 170.872 210.463C173.751 204.027 175.808 196.45 178.025 189.536L189.273 154.463C199.42 123.204 210.885 90.3706 220.254 59.1043C229.73 58.8468 243.731 58.8733 253.163 59.3449C251.447 59.8786 249.642 60.4205 248.042 61.2482C244.281 63.1937 241.936 66.4513 240.688 70.4401C237.456 80.7651 240.16 130.563 240.486 144.577C240.846 162.985 241.316 181.39 241.896 199.792C242.257 210.194 241.906 225.768 245.132 235.806C246.542 240.191 253.255 242.287 257.465 243.618C241.252 243.882 224.214 243.633 207.907 243.669C217.717 240.301 220.359 237.805 220.934 227.03C221.396 218.376 220.875 210.071 220.589 201.451L219.716 167.339C219.432 155.551 219.323 143.835 218.909 132.04C218.258 113.493 218.864 94.8426 218.327 76.2874C216.912 79.4804 213.379 91.3941 212.003 95.4284L186.526 174.211C183.14 184.852 179.696 195.474 176.193 206.077C172.75 216.464 167.861 235.128 157.133 240.231C143.786 246.627 133.793 234.401 130.144 222.673C120.345 191.173 119.778 156.81 113.477 124.492C110.875 111.148 107.663 99.0802 101.607 87.0621C101.416 95.4748 98.4426 113.815 97.2265 123.05L88.9593 187.305C87.4442 198.855 85.494 210.77 85.4522 222.42C85.3967 237.956 91.0635 240.129 104.102 243.732C96.123 243.615 88.1026 243.459 80.1277 243.458C72.7694 243.457 65.6819 243.903 58.3199 243.23C71.5856 240.335 76.9241 237.189 80.3083 222.893C82.8614 212.108 83.8998 201.047 85.3404 190.077C86.5598 180.792 87.7395 171.415 88.9833 162.126C91.1443 146.541 93.1703 130.939 95.0617 115.319C96.3317 105.516 98.4181 91.0981 98.7208 81.4723C83.1657 59.0323 64.9424 61.634 43 71.7662C51.5094 64.107 65.4285 59.58 76.691 58.3537Z" fill="white"></path>
</svg>