<svg width="848" height="301" viewBox="0 0 848 301" fill="none" xmlns="http://www.w3.org/2000/svg">
<path d="M83.715 53.154C89.0982 52.3106 97.0672 53.0335 102.167 54.707C135.558 65.6656 143.323 112.143 148.12 141.671C150.113 153.882 152.032 166.104 153.877 178.338C154.882 184.984 156.06 192.566 157.287 199.212C160.05 214.171 169.471 224.093 177.896 205.263C180.775 198.828 182.832 191.25 185.049 184.336L196.297 149.263C206.443 118.005 217.909 85.1709 227.277 53.9046C236.754 53.6471 250.755 53.6736 260.187 54.1452C258.471 54.6788 256.666 55.2208 255.066 56.0485C251.305 57.994 248.96 61.2516 247.712 65.2403C244.48 75.5654 247.184 125.364 247.51 139.377C247.87 157.785 248.34 176.19 248.92 194.592C249.281 204.995 248.93 220.569 252.156 230.606C253.566 234.991 260.279 237.088 264.489 238.418C248.276 238.683 231.238 238.433 214.931 238.47C224.741 235.101 227.383 232.605 227.958 221.83C228.42 213.177 227.899 204.871 227.613 196.251L226.74 162.139C226.456 150.352 226.347 138.635 225.933 126.841C225.282 108.294 225.887 89.6429 225.351 71.0877C223.936 74.2807 220.403 86.1944 219.026 90.2287L193.55 169.011C190.164 179.652 186.72 190.274 183.217 200.877C179.774 211.264 174.885 229.928 164.157 235.032C150.81 241.428 140.817 229.201 137.168 217.473C127.369 185.973 126.801 151.61 120.501 119.292C117.899 105.948 114.687 93.8805 108.631 81.8624C108.439 90.2751 105.466 108.615 104.25 117.851L95.9832 182.106C94.4682 193.655 92.5179 205.57 92.4761 217.22C92.4206 232.757 98.0875 234.929 111.125 238.532C103.147 238.415 95.1265 238.259 87.1517 238.258C79.7934 238.257 72.7059 238.704 65.3438 238.03C78.6096 235.136 83.9481 231.99 87.3322 217.693C89.8853 206.909 90.9238 195.847 92.3643 184.877C93.5837 175.592 94.7634 166.216 96.0072 156.926C98.1682 141.342 100.194 125.739 102.086 110.12C103.356 100.317 105.442 85.8984 105.745 76.2726C90.1896 53.8326 71.9663 56.4343 50.0239 66.5665C58.5333 58.9073 72.4524 54.3803 83.715 53.154Z" fill="white"></path>
<path d="M418.435 110.294C424.318 109.597 433.213 110.512 438.815 112.231C445.714 114.386 451.85 118.483 456.483 124.032C474.437 145.263 466.545 183.222 466.951 208.638C467.071 216.26 466.437 223.432 470.218 230.655C473.182 236.315 478.284 236.946 483.865 238.611C479.497 239.068 469.556 238.678 465.312 237.605C456.703 235.428 452.136 231.447 447.647 224.167C438.522 234.006 430.124 237.86 416.85 239.157C396 241.192 372.896 232.526 370.787 208.906C371.842 166.613 426.745 163.437 447.485 138.295C446.62 126.694 441.991 115.85 429.346 113.57C404.896 109.163 388.261 138.337 384.497 158.733L383.966 158.914C383.696 157.322 384.022 155.688 384.234 154.09C385.589 143.897 385.077 133.313 386.215 123.142C393.648 115.449 407.982 111.39 418.435 110.294ZM447.171 143.639C426.19 166.467 391.607 176.026 392.862 212.574C393.112 219.859 395.172 225.034 399.871 230.627C419.561 247.778 444.592 223.27 443.035 204.58C442.261 195.238 449.423 146.402 447.171 143.639Z" fill="white"></path>
<path d="M746.414 109.893C763.606 109.166 787.431 118.431 790.412 136.826C795.948 170.987 736.621 166.991 723.044 191.279C720.092 196.56 716.834 201.374 718.258 207.925C723.475 226.172 743.462 235.474 761.233 231.727C774.852 228.856 782.077 221.301 789.174 210.821C790.971 207.653 792.094 205.646 794.305 202.733C792.698 210.336 787.857 218.238 782.863 224.185C765.456 244.908 730.22 244.829 710.502 227.448C682.801 203.026 685.878 153.667 709.045 127.248C718.966 115.933 731.69 110.912 746.414 109.893ZM772.404 139.217C772.16 121.632 761.072 111.421 743.669 113.127C711.939 120.026 708.067 170.004 713.769 195.626C714.158 197.359 714.618 199.075 715.152 200.769C717.272 194.133 719.339 188.806 724.436 183.686C730.812 177.463 736.592 173.778 744.261 169.18C755.925 162.186 772.491 155.211 772.404 139.217Z" fill="white"></path>
<path d="M586.155 110.943L586.735 111.087C587.323 111.914 586.822 132.034 586.814 135.133L586.847 192.023C586.859 202.746 586.019 220.328 588.892 230.455C590.072 234.62 595.579 236.77 599.351 238.338C588.971 237.946 578.147 238.804 567.758 238.238C566.976 231.18 566.442 224.098 566.152 217.003C563.506 221.405 560.566 226.5 556.786 229.954C548.856 237.2 537.987 240.21 527.42 239.785C521.081 239.517 514.908 237.67 509.463 234.412C491.774 223.643 493.558 203.188 493.654 185.304L493.794 154.146C493.823 145.637 495.14 137.017 489.273 130.641C485.534 128.254 484.346 128.253 479.828 127.66C487.505 123.63 495.774 120.306 503.459 116.236C507.057 114.333 510.916 112.34 514.713 110.923C515.098 120.441 514.808 130.686 514.792 140.249L514.866 179.671C514.816 190.825 514.452 202.6 515.607 213.687C516.15 218.07 517.885 221.855 520.145 225.505C526.302 235.44 542.625 236.202 551.639 230.007C558.662 225.18 563.775 213.759 564.918 205.254C566.558 193.026 565.398 179.945 565.734 167.571C565.423 158.238 566.33 148.542 565.456 139.256C564.665 130.816 561.104 128.65 553.506 127.52C562.173 122.658 577.137 115.016 586.155 110.943Z" fill="white"></path>
<path d="M353.017 43.4277C354.098 47.0464 353.393 70.2474 353.399 75.778L353.482 170.13C353.499 186.249 353.161 202.419 353.677 218.52C354.065 230.643 355.923 234.263 366.992 238.452L320.722 238.407C320.555 237.154 325.578 236.242 326.853 235.264C335.387 228.719 332.877 207.622 332.783 197.779L332.537 159.521L332.599 105.531C332.617 95.0312 333.832 75.8525 330.288 65.4446C329.027 61.7436 322.847 60.5305 319.088 59.724C330.893 55.3903 342.255 49.933 353.017 43.4277Z" fill="white"></path>
<path d="M671.601 110.289C678.317 109.715 685.729 111.753 691.336 115.495C690.288 119.852 688.226 124.987 686.702 129.353C684.313 136.192 683.274 140.864 682.119 147.961C680.437 137.907 680.16 126.307 668.579 121.918C649.938 114.855 639.839 139.258 638.924 154.007C638.298 164.089 638.547 174.2 638.538 184.304C638.878 196.343 637.955 208.593 638.675 220.605C639.333 231.505 642.236 235.068 651.702 238.679C641.304 238.255 630.025 238.454 619.57 238.49C613.835 238.417 608.101 238.419 602.37 238.497C612.241 236.086 616.299 233.695 617.09 222.523C617.947 210.435 617.496 198.169 617.525 186.045C617.57 176.019 617.562 165.993 617.492 155.967C617.405 143.892 620.208 129.682 604.925 127.853C609.869 124.848 615.305 122.359 620.502 119.76C626.58 116.723 632.804 113.345 638.99 110.59C638.572 120.845 638.505 131.112 638.791 141.372C645.143 124.436 651.88 112.702 671.601 110.289Z" fill="white"></path>
<path d="M302.243 110.896L302.752 111.03C305.024 114.72 300.804 215.52 304.251 227.477C306.503 235.291 309.371 235.683 316.524 238.48C301.077 238.349 285.629 238.319 270.182 238.389C270.35 236.815 274.53 236.565 276.602 234.73C280.589 231.2 281.719 225.505 281.825 220.374C282.114 206.253 281.962 191.857 281.979 177.725L281.954 153.565C281.874 141.349 284.255 129.015 268.448 128.196C279.714 122.062 291.012 117.231 302.243 110.896Z" fill="white"></path>
<path d="M290.875 72.983C296.879 72.1814 302.396 76.3983 303.197 82.4013C303.999 88.4044 299.782 93.9209 293.779 94.7229C287.775 95.5249 282.258 91.308 281.456 85.3045C280.654 79.3011 284.871 73.7846 290.875 72.983Z" fill="white"></path>
</svg>